<?xml version="1.0" encoding="UTF-8"?>
<svg version="1.1" xmlns="http://www.w3.org/2000/svg" width="600" height="400">
<path d="M0 0 C198 0 396 0 600 0 C600 132 600 264 600 400 C402 400 204 400 0 400 C0 268 0 136 0 0 Z " fill="#F5F5F5" transform="translate(0,0)"/>
<path d="M0 0 C4.86092606 2.3043541 9.44499403 5.0029526 14.0625 7.7578125 C16.22617549 9.03451028 18.39025166 10.31052921 20.5546875 11.5859375 C21.67069336 12.24529297 22.78669922 12.90464844 23.93652344 13.58398438 C29.33376384 16.75956638 34.76016651 19.88403119 40.1875 23.0078125 C42.36979858 24.26561301 44.5520902 25.52342558 46.734375 26.78125 C48.9270405 28.04434519 51.11974889 29.30736594 53.3125 30.5703125 C66.47257594 38.15004763 79.62751755 45.73811817 92.75 53.3828125 C94.27874756 54.27238647 94.27874756 54.27238647 95.83837891 55.17993164 C96.7772998 55.72770264 97.7162207 56.27547363 98.68359375 56.83984375 C99.50786865 57.32042236 100.33214355 57.80100098 101.18139648 58.29614258 C102.92279285 59.33730968 104.62434188 60.44487375 106.3125 61.5703125 C106.72354317 63.7278223 106.72354317 63.7278223 106.77420044 66.45777893 C106.81290253 68.00742592 106.81290253 68.00742592 106.85238647 69.58837891 C106.86516632 70.72654053 106.87794617 71.86470215 106.89111328 73.03735352 C106.92791199 74.83027077 106.92791199 74.83027077 106.9654541 76.65940857 C107.04013098 80.63088944 107.09005551 84.60230322 107.1328125 88.57421875 C107.14889404 89.94287614 107.16502657 91.31153294 107.18120956 92.68018913 C107.24611569 98.37705675 107.30231497 104.07389891 107.33607674 109.77104282 C107.38472801 117.92654808 107.48402886 126.07774883 107.65527928 134.23163086 C107.77165312 139.96934314 107.83000549 145.70590939 107.84583843 151.44477028 C107.85677242 154.8703296 107.89246214 158.29130168 107.99014664 161.71557808 C108.50648492 182.5289057 108.50648492 182.5289057 104.87679291 187.56055832 C101.4304003 190.67318361 97.63159334 192.38991467 93.26251221 193.84611416 C91.16765883 194.62410382 89.37531729 195.61918944 87.45968628 196.765625 C84.3125 198.5703125 84.3125 198.5703125 82.11816406 198.44946289 C80.18527711 197.50836961 78.28837599 196.57262859 76.421875 195.50390625 C75.71289062 195.10107422 75.00390625 194.69824219 74.2734375 194.28320312 C73.54382813 193.86232422 72.81421875 193.44144531 72.0625 193.0078125 C71.31742188 192.58306641 70.57234375 192.15832031 69.8046875 191.72070312 C67.97151039 190.67485208 66.14167323 189.62315058 64.3125 188.5703125 C64.37123291 189.18438965 64.42996582 189.7984668 64.49047852 190.43115234 C65.81577091 207.58104785 65.81577091 207.58104785 61.64501953 212.56152344 C57.56672432 215.75173322 53.00730559 217.90359615 48.19775391 219.77441406 C46.04266831 220.61484415 46.04266831 220.61484415 43.3125 222.5703125 C37.26806225 222.40015085 33.30938112 220.16988401 28.375 217.0078125 C27.69115234 216.58306641 27.00730469 216.15832031 26.30273438 215.72070312 C24.6326222 214.68126268 22.97158782 213.62726034 21.3125 212.5703125 C21.38057861 213.19486328 21.44865723 213.81941406 21.51879883 214.46289062 C23.15852863 231.71917071 23.15852863 231.71917071 20.18164062 236.31689453 C16.77815717 239.42067853 12.5448461 240.92598885 8.3125 242.5703125 C6.65206826 243.58854785 5.00375498 244.62713928 3.375 245.6953125 C0.68137695 247.41965966 -0.21240638 247.66986246 -3.390625 247.00390625 C-7.6391326 245.15651017 -11.53648309 242.89673531 -15.5 240.5078125 C-16.27537109 240.04826172 -17.05074219 239.58871094 -17.84960938 239.11523438 C-23.52247362 235.73533888 -23.52247362 235.73533888 -24.6875 234.5703125 C-24.77450342 232.93558368 -24.79451063 231.29717195 -24.78515625 229.66015625 C-24.78032227 228.17612305 -24.78032227 228.17612305 -24.77539062 226.66210938 C-24.76282227 225.10073242 -24.76282227 225.10073242 -24.75 223.5078125 C-24.74548828 222.46302734 -24.74097656 221.41824219 -24.73632812 220.34179688 C-24.72449913 217.7512459 -24.70801689 215.16080691 -24.6875 212.5703125 C-25.17629639 212.87324219 -25.66509277 213.17617188 -26.16870117 213.48828125 C-28.39725488 214.86051089 -30.63584005 216.21546511 -32.875 217.5703125 C-33.64392578 218.04726563 -34.41285156 218.52421875 -35.20507812 219.015625 C-35.95595703 219.46679688 -36.70683594 219.91796875 -37.48046875 220.3828125 C-38.50950317 221.01123047 -38.50950317 221.01123047 -39.55932617 221.65234375 C-42.96567494 223.12164183 -45.58186003 222.90913584 -49.09106445 221.83374023 C-55.50465922 219.01812439 -62.13917498 216.04835999 -66.6875 210.5703125 C-69.11031351 203.17146197 -67.93529935 195.12237812 -66.6875 187.5703125 C-69.12554479 189.02774149 -71.56295275 190.48621718 -74 191.9453125 C-75.03543945 192.5640625 -75.03543945 192.5640625 -76.09179688 193.1953125 C-76.75888672 193.59492188 -77.42597656 193.99453125 -78.11328125 194.40625 C-78.72598877 194.77282715 -79.33869629 195.1394043 -79.9699707 195.51708984 C-81.56677115 196.4962792 -83.12896886 197.53129174 -84.6875 198.5703125 C-88.40296893 198.2285559 -91.10920558 196.97729537 -94.296875 195.1015625 C-95.13347656 194.61300781 -95.97007812 194.12445313 -96.83203125 193.62109375 C-97.69183594 193.10933594 -98.55164063 192.59757813 -99.4375 192.0703125 C-100.31277344 191.55855469 -101.18804687 191.04679688 -102.08984375 190.51953125 C-108.51180686 186.74600564 -108.51180686 186.74600564 -109.6875 185.5703125 C-109.81605342 183.9847351 -109.87595781 182.39354398 -109.90869141 180.80310059 C-109.93174347 179.77137726 -109.95479553 178.73965393 -109.97854614 177.67666626 C-109.99851654 176.53490936 -110.01848694 175.39315247 -110.0390625 174.21679688 C-110.06330292 173.02166473 -110.08754333 171.82653259 -110.11251831 170.59518433 C-110.32408918 159.54832058 -110.45040749 148.50013541 -110.54681396 137.45171356 C-110.61306386 130.02405111 -110.70752467 122.59900495 -110.87402344 115.17285156 C-111.0192763 108.69400682 -111.11129448 102.21697676 -111.13949776 95.73652506 C-111.15614211 92.3074456 -111.19837389 88.88320078 -111.30401611 85.45561218 C-111.87244588 64.59122034 -111.87244588 64.59122034 -108.24260902 59.57260513 C-104.77650512 56.45035329 -100.95942134 54.72602884 -96.57263374 53.25642014 C-93.64526917 52.19098529 -91.09230206 50.56698584 -88.44921875 48.9375 C-86.42524693 47.77210309 -84.40048949 46.60806966 -82.375 45.4453125 C-80.10805224 44.14066093 -77.84112576 42.83597237 -75.57421875 41.53125 C-73.86177979 40.54656738 -73.86177979 40.54656738 -72.11474609 39.54199219 C-66.63594199 36.39006015 -61.16190221 33.2298815 -55.6875 30.0703125 C-53.53647726 28.82939428 -51.38543553 27.58850898 -49.234375 26.34765625 C-43.5965023 23.09510266 -37.959289 19.84140976 -32.32324219 16.58569336 C-30.09630872 15.30120816 -27.8678331 14.01939225 -25.63769531 12.74047852 C-21.10843067 10.141211 -16.59259733 7.53673264 -12.15625 4.78125 C-11.18896973 4.19138306 -11.18896973 4.19138306 -10.20214844 3.58959961 C-8.59952337 2.60713812 -7.00990158 1.60354355 -5.421875 0.59765625 C-2.6875 -0.4296875 -2.6875 -0.4296875 0 0 Z " fill="#040404" transform="translate(301.6875,76.4296875)"/>
<path d="M0 0 C1.98036486 0.97674104 3.95926133 1.95645982 5.9375 2.9375 C7.03964844 3.48277344 8.14179688 4.02804688 9.27734375 4.58984375 C12 6 12 6 13 7 C13.12855342 8.5855774 13.18845781 10.17676852 13.22119141 11.76721191 C13.24424347 12.79893524 13.26729553 13.83065857 13.29104614 14.89364624 C13.31101654 16.03540314 13.33098694 17.17716003 13.3515625 18.35351562 C13.37580292 19.54864777 13.40004333 20.74377991 13.42501831 21.97512817 C13.63658918 33.02199192 13.76290749 44.07017709 13.85931396 55.11859894 C13.92556386 62.54626139 14.02002467 69.97130755 14.18652344 77.39746094 C14.3317763 83.87630568 14.42379448 90.35333574 14.45199776 96.83378744 C14.46864211 100.2628669 14.51087389 103.68711172 14.61651611 107.11470032 C15.18450337 127.96284975 15.18450337 127.96284975 11.56738281 132.99179077 C8.12177658 136.10745158 4.32208281 137.82203686 -0.04885483 139.27636814 C-2.14469179 140.05366263 -3.93690213 141.04836885 -5.85308838 142.19517517 C-9 144 -9 144 -11.19433594 143.87915039 C-13.12722289 142.93805711 -15.02412401 142.00231609 -16.890625 140.93359375 C-17.59960938 140.53076172 -18.30859375 140.12792969 -19.0390625 139.71289062 C-19.76867187 139.29201172 -20.49828125 138.87113281 -21.25 138.4375 C-22.36761719 137.80038086 -22.36761719 137.80038086 -23.5078125 137.15039062 C-25.34098961 136.10453958 -27.17082677 135.05283808 -29 134 C-28.94126709 134.61407715 -28.88253418 135.2281543 -28.82202148 135.86083984 C-27.49672909 153.01073535 -27.49672909 153.01073535 -31.66748047 157.99121094 C-35.74577568 161.18142072 -40.30519441 163.33328365 -45.11474609 165.20410156 C-47.26983169 166.04453165 -47.26983169 166.04453165 -50 168 C-53.6875 167.625 -53.6875 167.625 -57 167 C-57.495 165.02 -57.495 165.02 -58 163 C-56.68 163.33 -55.36 163.66 -54 164 C-54 124.73 -54 85.46 -54 45 C-55.65 44.34 -57.3 43.68 -59 43 C-62.30737419 41.30973625 -65.52308721 39.46342108 -68.75 37.625 C-69.62527344 37.14289063 -70.50054687 36.66078125 -71.40234375 36.1640625 C-72.23378906 35.6896875 -73.06523437 35.2153125 -73.921875 34.7265625 C-75.06027832 34.08581787 -75.06027832 34.08581787 -76.22167969 33.43212891 C-78.33827883 31.72757502 -78.64529015 30.64760517 -79 28 C-72.72996582 29.73891598 -67.66637129 33.06233907 -62.18945312 36.45507812 C-56.9523878 39.85463659 -56.9523878 39.85463659 -51 41 C-48.40667167 39.80706897 -46.15428315 38.61645366 -43.75 37.125 C-43.11320312 36.74730469 -42.47640625 36.36960938 -41.8203125 35.98046875 C-38.73603229 34.22539931 -38.73603229 34.22539931 -36 32 C-44.91 27.05 -44.91 27.05 -54 22 C-53.67 21.01 -53.34 20.02 -53 19 C-35.73277941 24.40945943 -35.73277941 24.40945943 -30 31 C-27.01939223 38.02765015 -28.02436312 46.18309255 -28.33984375 53.6328125 C-28.37158721 55.83802998 -28.395769 58.0433681 -28.41273499 60.24874878 C-28.47737778 66.02901475 -28.64407214 71.80191327 -28.83270264 77.57928467 C-29.0072267 83.48413394 -29.08437774 89.39018521 -29.16992188 95.296875 C-29.3517596 106.86780532 -29.64152575 118.43328814 -30 130 C-29.14148438 130.25523437 -28.28296875 130.51046875 -27.3984375 130.7734375 C-23.84267486 132.05678172 -20.86307753 133.68215348 -17.625 135.625 C-16.56539063 136.25664062 -15.50578125 136.88828125 -14.4140625 137.5390625 C-13.21910156 138.26222656 -13.21910156 138.26222656 -12 139 C-11.75629345 123.78770087 -11.60499222 108.57639547 -11.56215668 93.36225319 C-11.54013485 86.2967918 -11.48846826 79.23392241 -11.36572266 72.16943359 C-11.24727595 65.34748062 -11.21315785 58.52919192 -11.2297821 51.70624924 C-11.2224629 49.10740642 -11.18717768 46.50848308 -11.12312317 43.91041946 C-10.19277598 30.74947276 -10.19277598 30.74947276 -14.65591431 18.9262619 C-18.98333145 15.22417795 -23.79390836 13.18248554 -29 11 C-29 10.34 -29 9.68 -29 9 C-22.83654173 9.63379824 -18.97430698 12.3374928 -13.90234375 15.69921875 C-11.1303562 17.29135413 -11.1303562 17.29135413 -8.5234375 16.43359375 C-7.69070313 15.96050781 -6.85796875 15.48742187 -6 15 C-4.97261719 14.43023437 -3.94523437 13.86046875 -2.88671875 13.2734375 C-1.30310547 12.33371094 -1.30310547 12.33371094 0.3125 11.375 C1.91544922 10.42753906 1.91544922 10.42753906 3.55078125 9.4609375 C4.35902344 8.97882813 5.16726563 8.49671875 6 8 C4.03617993 6.49440461 2.21736634 5.10868317 0 4 C0 2.68 0 1.36 0 0 Z " fill="#040404" transform="translate(395,131)"/>
<path d="M0 0 C3.93722694 1.06436996 7.08639415 2.87484011 10.515625 5.0078125 C12.03165657 5.92465948 13.54864758 6.83992118 15.06640625 7.75390625 C16.30898193 8.50583252 16.30898193 8.50583252 17.57666016 9.27294922 C22.58160763 12.2693741 27.64588328 15.16334062 32.703125 18.0703125 C34.95189342 19.36576303 37.20059041 20.66133758 39.44921875 21.95703125 C40.57827637 22.60720215 41.70733398 23.25737305 42.87060547 23.92724609 C46.18141785 25.83430831 49.49131761 27.74294206 52.80078125 29.65234375 C53.87005859 30.26924072 54.93933594 30.8861377 56.04101562 31.52172852 C58.18194513 32.75736643 60.32257278 33.99352751 62.46289062 35.23022461 C67.54562766 38.16593009 72.63174396 41.09525026 77.7305603 44.00292969 C80.14215583 45.37868041 82.55174376 46.75792597 84.96118164 48.13745117 C86.6655305 49.11133068 88.37277438 50.08013815 90.08007812 51.04882812 C91.10939453 51.63857422 92.13871094 52.22832031 93.19921875 52.8359375 C94.10728271 53.35317383 95.01534668 53.87041016 95.95092773 54.40332031 C98.03913296 55.73804489 99.61140704 57.05214918 101.265625 58.8828125 C98.2838551 60.9112274 95.27800317 62.90022495 92.265625 64.8828125 C91.62367188 65.33140625 90.98171875 65.78 90.3203125 66.2421875 C87.59711293 68.02508946 85.99146305 69.03155897 82.73046875 68.36328125 C77.73497992 66.22879391 73.17584284 63.47565482 68.515625 60.6953125 C66.35194951 59.41861472 64.18787334 58.14259579 62.0234375 56.8671875 C60.90743164 56.20783203 59.79142578 55.54847656 58.64160156 54.86914062 C53.24436505 51.69356091 47.81814543 48.56876297 42.390625 45.4453125 C29.91299899 38.2625712 29.91299899 38.2625712 23.84320068 34.7323761 C21.45572947 33.34401273 19.0668618 31.9580618 16.67791748 30.57223511 C14.9930788 29.59352145 13.31023462 28.61137685 11.62744141 27.62915039 C10.60440918 27.03610107 9.58137695 26.44305176 8.52734375 25.83203125 C7.62975342 25.30955811 6.73216309 24.78708496 5.80737305 24.2487793 C2.16027206 22.26279284 2.16027206 22.26279284 -1.734375 20.8828125 C-4.16135889 21.62670369 -4.16135889 21.62670369 -6.48828125 23.1875 C-7.41060547 23.74308594 -8.33292969 24.29867187 -9.28320312 24.87109375 C-10.27771484 25.49371094 -11.27222656 26.11632812 -12.296875 26.7578125 C-14.46381191 28.06941458 -16.63182468 29.37924048 -18.80078125 30.6875 C-19.36447418 31.03077332 -19.92816711 31.37404663 -20.50894165 31.72772217 C-26.26428183 35.22968365 -32.11129379 38.56265939 -37.97229004 41.88372803 C-40.91051755 43.54967351 -43.84424583 45.22348113 -46.77734375 46.8984375 C-47.35416901 47.22782318 -47.93099426 47.55720886 -48.52529907 47.89657593 C-56.64438059 52.53928225 -64.7141411 57.26658257 -72.78515625 61.9921875 C-73.64189941 62.48654297 -74.49864258 62.98089844 -75.38134766 63.49023438 C-76.85788025 64.36408185 -78.31505397 65.27247679 -79.73974609 66.22851562 C-82.72842227 68.18450254 -84.18761499 68.97698453 -87.7734375 68.359375 C-90.96598508 66.76731301 -94.04973823 65.09359456 -97.109375 63.2578125 C-98.16898438 62.62617188 -99.22859375 61.99453125 -100.3203125 61.34375 C-101.51527344 60.62058594 -101.51527344 60.62058594 -102.734375 59.8828125 C-101.46256763 56.0673904 -100.30978654 55.80259194 -96.8359375 53.9140625 C-95.80911865 53.34880859 -94.7822998 52.78355469 -93.72436523 52.20117188 C-92.05869507 51.30108398 -92.05869507 51.30108398 -90.359375 50.3828125 C-88.05018606 49.11306098 -85.74159688 47.84221816 -83.43359375 46.5703125 C-82.28938965 45.94253906 -81.14518555 45.31476563 -79.96630859 44.66796875 C-75.66900928 42.29435849 -71.41394298 39.85344708 -67.171875 37.3828125 C-66.41914307 36.94541748 -65.66641113 36.50802246 -64.89086914 36.05737305 C-60.66036913 33.59562707 -56.43589463 31.12358637 -52.2109375 28.65234375 C-50.23966649 27.49985776 -48.26831052 26.34751706 -46.296875 25.1953125 C-45.31299805 24.62006836 -44.32912109 24.04482422 -43.31542969 23.45214844 C-33.82578919 17.91475681 -24.28611025 12.46616642 -14.73461914 7.03637695 C-13.60403076 6.39273193 -12.47344238 5.74908691 -11.30859375 5.0859375 C-10.30401123 4.51520508 -9.29942871 3.94447266 -8.2644043 3.35644531 C-2.33037067 -0.09987303 -2.33037067 -0.09987303 0 0 Z " fill="#FAFAFA" transform="translate(300.734375,80.1171875)"/>
<path d="M0 0 C4.10897287 1.2576107 7.65406986 2.77976192 11.359375 4.94921875 C12.3793457 5.54234863 13.39931641 6.13547852 14.45019531 6.74658203 C15.53913086 7.38708496 16.62806641 8.02758789 17.75 8.6875 C18.90428788 9.36108789 20.05891676 10.03409173 21.21386719 10.70654297 C23.61390505 12.10443802 26.01245688 13.50483648 28.41015625 14.90673828 C32.92879535 17.54550765 37.46627207 20.15133556 42.00317383 22.75854492 C51.5521591 28.24782926 61.07499582 33.78008503 70.5625 39.375 C71.97354004 40.20572021 71.97354004 40.20572021 73.41308594 41.05322266 C74.26805664 41.55901855 75.12302734 42.06481445 76.00390625 42.5859375 C76.75486572 43.0298584 77.5058252 43.4737793 78.27954102 43.93115234 C80 45 80 45 81 46 C81.09581822 47.53085839 81.12188108 49.06613756 81.12025452 50.59999084 C81.12231651 52.09135811 81.12231651 52.09135811 81.12442017 53.612854 C81.11902725 55.26254181 81.11902725 55.26254181 81.11352539 56.94555664 C81.11367142 58.09662399 81.11381744 59.24769135 81.1139679 60.43363953 C81.11326818 64.25916391 81.10547302 68.08464031 81.09765625 71.91015625 C81.09579228 74.55431593 81.09436828 77.19847596 81.09336853 79.84263611 C81.09025549 86.10415417 81.08204248 92.36565486 81.07201904 98.62716526 C81.06085705 105.75401537 81.05534724 112.8808663 81.05032361 120.00772297 C81.03985984 134.6718243 81.02226093 149.33591191 81 164 C74.77158901 161.5086356 68.90637969 158.1803583 63 155 C62.67 122.33 62.34 89.66 62 56 C53.75 51.38 45.5 46.76 37 42 C28.125 36.8125 28.125 36.8125 24.1640625 34.4609375 C18.46780879 31.08095663 12.72162567 27.78648992 6.97705078 24.48950195 C5.82825439 23.82760864 5.82825439 23.82760864 4.65625 23.15234375 C3.97369141 22.76038818 3.29113281 22.36843262 2.58789062 21.96459961 C1 21 1 21 0 20 C-0.08669432 18.5112814 -0.10703494 17.018555 -0.09765625 15.52734375 C-0.09443359 14.62822266 -0.09121094 13.72910156 -0.08789062 12.80273438 C-0.07951172 11.85720703 -0.07113281 10.91167969 -0.0625 9.9375 C-0.05798828 8.98810547 -0.05347656 8.03871094 -0.04882812 7.06054688 C-0.0370011 4.70696935 -0.02052025 2.35351523 0 0 Z " fill="#FBFBFB" transform="translate(302,106)"/>
<path d="M0 0 C3.39809271 0.66762296 6.00111961 1.98222439 9 3.6953125 C10.45599609 4.52289063 10.45599609 4.52289063 11.94140625 5.3671875 C13.45541016 6.23730469 13.45541016 6.23730469 15 7.125 C16.46759766 7.9603125 16.46759766 7.9603125 17.96484375 8.8125 C20.98172592 10.53303464 23.99353891 12.26129778 27 14 C27.99332336 14.27656937 28.98664673 14.55313873 30.0100708 14.83808899 C34.14884208 16.35828931 36.17383693 17.57049264 39 21 C41.35711725 29.53565359 40.38734838 38.96026411 40.171875 47.71484375 C40.1494844 50.37296925 40.13181774 53.03070662 40.12042236 55.68885803 C40.08320111 61.96200442 39.98484665 68.23262537 39.86422849 74.5046621 C39.72984828 81.64822398 39.66406035 88.79191002 39.60388327 95.93642223 C39.47862961 110.62557011 39.26771953 125.31274097 39 140 C37.86469251 139.54143757 37.86469251 139.54143757 36.70644951 139.07361126 C34.71801308 138.2848259 32.71172976 137.54065672 30.69680786 136.82221985 C26.80369278 135.04037063 23.58533607 133.48634159 21 130 C19.0373142 124.04986934 19.70396445 117.50845166 20.02105331 111.34117699 C20.18196578 108.12239567 20.2549164 104.91207654 20.30471802 101.68977356 C20.46285545 92.5422205 20.78678504 83.4020896 21.14648438 74.26049805 C21.36099421 68.65557174 21.48162047 63.05450103 21.54864883 57.44597816 C21.59399045 55.31876419 21.67613597 53.19198649 21.7967186 51.06770897 C22.47638803 41.30249885 22.47638803 41.30249885 20 32 C15.25786467 27.08713384 9.0912543 24.28965331 2.83200264 21.77051258 C1 21 1 21 0 20 C-0.08669432 18.5112814 -0.10703494 17.018555 -0.09765625 15.52734375 C-0.09443359 14.62822266 -0.09121094 13.72910156 -0.08789062 12.80273438 C-0.07951172 11.85720703 -0.07113281 10.91167969 -0.0625 9.9375 C-0.05798828 8.98810547 -0.05347656 8.03871094 -0.04882812 7.06054688 C-0.0370011 4.70696935 -0.02052025 2.35351523 0 0 Z " fill="#FBFBFB" transform="translate(302,155)"/>
<path d="M0 0 C0.86002625 0.28967148 1.72005249 0.57934296 2.60614014 0.87779236 C5.93863141 2.02726801 5.93863141 2.02726801 9.16973877 2.78736877 C12.95620252 4.19936963 15.80150352 5.57388663 18 9 C20.35260327 17.53902296 19.3874097 26.95777286 19.171875 35.71484375 C19.1494844 38.37296925 19.13181774 41.03070662 19.12042236 43.68885803 C19.08320111 49.96200442 18.98484665 56.23262537 18.86422849 62.5046621 C18.72984828 69.64822398 18.66406035 76.79191002 18.60388327 83.93642223 C18.47862961 98.62557011 18.26771953 113.31274097 18 128 C16.12244991 127.08856792 14.24807777 126.1705881 12.375 125.25 C10.80878906 124.48429687 10.80878906 124.48429687 9.2109375 123.703125 C8.15132812 123.14109375 7.09171875 122.5790625 6 122 C4.89256439 121.50574524 3.78512878 121.01149048 2.64413452 120.5022583 C-0.38200713 117.63849021 -0.43883796 117.0226429 -0.7215271 113.03924561 C-0.73894582 110.93081513 -0.72291058 108.82195607 -0.68115234 106.71386719 C-0.6820285 105.56236176 -0.68290466 104.41085632 -0.68380737 103.22445679 C-0.67962393 99.41457518 -0.63293077 95.60644941 -0.5859375 91.796875 C-0.57474819 89.15701255 -0.56620676 86.51713765 -0.56021118 83.8772583 C-0.54156796 77.63679503 -0.49233928 71.39696301 -0.43211424 65.15677762 C-0.36503178 58.05170987 -0.33205595 50.94661184 -0.30194163 43.84130621 C-0.23923893 29.22721195 -0.13371484 14.61361481 0 0 Z " fill="#FEFEFE" transform="translate(238,167)"/>
<path d="M0 0 C2.94095367 0.88928321 5.33372077 2.09353212 8.00683594 3.60913086 C9.03180176 4.18638916 10.05676758 4.76364746 11.11279297 5.35839844 C12.1967334 5.9786792 13.28067383 6.59895996 14.39746094 7.23803711 C15.51620605 7.87185303 16.63495117 8.50566895 17.78759766 9.15869141 C26.79753037 14.2771771 35.75495722 19.48085549 44.64746094 24.80053711 C45.72036377 25.44176514 45.72036377 25.44176514 46.81494141 26.09594727 C51.09690244 28.65677439 55.37412774 31.22534068 59.64746094 33.80053711 C56.2972259 36.58633038 52.93968901 38.96659341 49.14746094 41.11303711 C48.22964844 41.64541992 47.31183594 42.17780273 46.36621094 42.72631836 C43.09013229 44.02074599 41.99905627 43.75968209 38.64746094 42.80053711 C36.52427958 41.74077331 34.43957015 40.60242642 32.38574219 39.41381836 C31.7950444 39.07432663 31.20434662 38.7348349 30.5957489 38.38505554 C28.71329352 37.3009122 26.83667503 36.20708243 24.95996094 35.11303711 C23.71878462 34.39691775 22.477251 33.68141732 21.23535156 32.96655273 C20.0145856 32.26158342 18.79388183 31.55650639 17.57324219 30.85131836 C16.97681915 30.50811554 16.38039612 30.16491272 15.76589966 29.81130981 C13.03045021 28.22735028 10.34533628 26.60290745 7.69970703 24.87231445 C6.83039551 24.30593262 5.96108398 23.73955078 5.06542969 23.15600586 C4.32446045 22.65093506 3.58349121 22.14586426 2.82006836 21.62548828 C0.62851536 20.54931588 0.62851536 20.54931588 -1.78271484 21.46508789 C-4.50686976 22.88073746 -7.21172024 24.30689152 -9.88769531 25.81225586 C-10.94537109 26.40586914 -12.00304687 26.99948242 -13.09277344 27.61108398 C-14.18912109 28.23047852 -15.28546875 28.84987305 -16.41503906 29.48803711 C-17.48431641 30.0880957 -18.55359375 30.6881543 -19.65527344 31.30639648 C-20.72197266 31.90645508 -21.78867187 32.50651367 -22.88769531 33.12475586 C-24.48701904 34.02266846 -24.48701904 34.02266846 -26.11865234 34.9387207 C-28.32106027 36.20669313 -30.50140444 37.51359673 -32.66064453 38.85375977 C-33.71268066 39.5026416 -34.7647168 40.15152344 -35.84863281 40.82006836 C-37.25713501 41.71302612 -37.25713501 41.71302612 -38.6940918 42.62402344 C-41.84674612 44.01925176 -43.12732539 43.88797055 -46.35253906 42.80053711 C-48.20532227 41.95263672 -48.20532227 41.95263672 -49.90332031 40.95288086 C-50.51884766 40.59516602 -51.134375 40.23745117 -51.76855469 39.86889648 C-52.39439453 39.49571289 -53.02023438 39.1225293 -53.66503906 38.73803711 C-54.31021484 38.36098633 -54.95539063 37.98393555 -55.62011719 37.59545898 C-57.20132058 36.67016218 -58.77745366 35.7362103 -60.35253906 34.80053711 C-57.84418786 31.98269674 -55.05330969 30.34329988 -51.77832031 28.49975586 C-50.64644287 27.8586084 -49.51456543 27.21746094 -48.34838867 26.55688477 C-47.74751434 26.21941223 -47.14664001 25.8819397 -46.52755737 25.53424072 C-43.3673249 23.7590922 -40.21616672 21.96794096 -37.06347656 20.17944336 C-36.42169968 19.81598816 -35.77992279 19.45253296 -35.11869812 19.07806396 C-28.64689354 15.40980502 -22.21406172 11.67680932 -15.79003906 7.92553711 C-14.78046143 7.33732178 -13.77088379 6.74910645 -12.73071289 6.14306641 C-1.9346967 -0.16403562 -1.9346967 -0.16403562 0 0 Z " fill="#FBFBFB" transform="translate(300.3525390625,129.199462890625)"/>
<path d="M0 0 C2.73186009 1.45828831 5.45138097 2.93231247 8.1550045 4.44252396 C10.83048351 5.9619745 10.83048351 5.9619745 13.04245949 6.89228439 C14.64492798 7.6696167 14.64492798 7.6696167 17 10 C17.86099103 13.76235691 17.75728765 17.4425792 17.68115234 21.28613281 C17.6820285 22.43763824 17.68290466 23.58914368 17.68380737 24.77554321 C17.67962393 28.58542482 17.63293077 32.39355059 17.5859375 36.203125 C17.57474819 38.84298745 17.56620676 41.48286235 17.56021118 44.1227417 C17.54156796 50.36320497 17.49233928 56.60303699 17.43211424 62.84322238 C17.36503178 69.94829013 17.33205595 77.05338816 17.30194163 84.15869379 C17.23923893 98.77278805 17.13371484 113.38638519 17 128 C15.95552704 127.56549278 15.95552704 127.56549278 14.88995361 127.12220764 C12.00780165 125.9369531 12.00780165 125.9369531 8.92791748 125.21263123 C5.1143712 123.80631668 2.23367421 122.43235189 0 119 C-2.36575831 110.469702 -1.38726455 101.03632982 -1.171875 92.28515625 C-1.1494844 89.62703075 -1.13181774 86.96929338 -1.12042236 84.31114197 C-1.08320111 78.03799558 -0.98484665 71.76737463 -0.86422849 65.4953379 C-0.72984828 58.35177602 -0.66406035 51.20808998 -0.60388327 44.06357777 C-0.47862961 29.37442989 -0.26771953 14.68725903 0 0 Z " fill="#FEFEFE" transform="translate(196,142)"/>
<path d="M0 0 C4.12488695 1.3239367 7.62135576 2.78284036 11.3125 5.0625 C12.60607422 5.85333984 12.60607422 5.85333984 13.92578125 6.66015625 C16 8 16 8 17 9 C17.09581822 10.53085839 17.12188108 12.06613756 17.12025452 13.59999084 C17.12162918 14.59423569 17.12300385 15.58848053 17.12442017 16.612854 C17.12082489 17.71264587 17.11722961 18.81243774 17.11352539 19.94555664 C17.11367142 21.09662399 17.11381744 22.24769135 17.1139679 23.43363953 C17.11326818 27.25916391 17.10547302 31.08464031 17.09765625 34.91015625 C17.09579228 37.55431593 17.09436828 40.19847596 17.09336853 42.84263611 C17.09025549 49.10415417 17.08204248 55.36565486 17.07201904 61.62716526 C17.06085705 68.75401537 17.05534724 75.8808663 17.05032361 83.00772297 C17.03985984 97.6718243 17.02226093 112.33591191 17 127 C16.2383617 126.6863981 15.4767234 126.37279619 14.69200516 126.0496912 C11.97346212 124.92851905 11.97346212 124.92851905 8.92791748 124.2049408 C5.12446056 122.79516377 2.23747753 121.4205124 0 118 C-2.36197447 109.54321609 -1.38732068 100.18274575 -1.171875 91.50390625 C-1.14948553 88.86836103 -1.13240775 86.23276578 -1.12042236 83.59715271 C-1.08320239 77.37711981 -0.98485003 71.15963419 -0.86422849 64.9407205 C-0.72984397 57.85762006 -0.66405933 50.77439435 -0.60388327 43.69033539 C-0.47863253 29.12557935 -0.26772507 14.5628253 0 0 Z " fill="#FEFEFE" transform="translate(281,192)"/>
<path d="M0 0 C4.86092606 2.3043541 9.44499403 5.0029526 14.0625 7.7578125 C16.22617549 9.03451028 18.39025166 10.31052921 20.5546875 11.5859375 C21.67069336 12.24529297 22.78669922 12.90464844 23.93652344 13.58398438 C29.33376295 16.75956585 34.7601236 19.88410709 40.1875 23.0078125 C42.35679492 24.25777069 44.52606559 25.50777099 46.6953125 26.7578125 C48.32001465 27.69367188 48.32001465 27.69367188 49.97753906 28.6484375 C53.40003544 30.62075752 56.82134627 32.59512387 60.2421875 34.5703125 C71.25234459 40.92701404 82.26301146 47.28214902 93.3125 53.5703125 C92.9825 54.8903125 92.6525 56.2103125 92.3125 57.5703125 C81.36721005 51.57251473 70.53336306 45.40478498 59.76367188 39.09716797 C51.22213531 34.09491989 42.6580482 29.13301706 34.06933594 24.2121582 C28.52271823 21.02815899 23.0123741 17.79817143 17.546875 14.4765625 C16.45761719 13.82107422 15.36835938 13.16558594 14.24609375 12.49023438 C12.17257357 11.23976178 10.10696418 9.97604606 8.05078125 8.69726562 C7.12136719 8.13974609 6.19195312 7.58222656 5.234375 7.0078125 C4.42581055 6.51152344 3.61724609 6.01523438 2.78417969 5.50390625 C-0.43926092 4.28636013 -2.38738348 4.7042261 -5.6875 5.5703125 C-8.19783138 6.87175158 -10.54441491 8.20681999 -12.9375 9.6953125 C-14.45353157 10.61215948 -15.97052258 11.52742118 -17.48828125 12.44140625 C-18.31666504 12.94269043 -19.14504883 13.44397461 -19.99853516 13.96044922 C-25.00348263 16.9568741 -30.06775828 19.85084062 -35.125 22.7578125 C-37.37376842 24.05326303 -39.62246541 25.34883758 -41.87109375 26.64453125 C-43.00015137 27.29470215 -44.12920898 27.94487305 -45.29248047 28.61474609 C-48.60329285 30.52180831 -51.91319261 32.43044206 -55.22265625 34.33984375 C-56.29193359 34.95674072 -57.36121094 35.5736377 -58.46289062 36.20922852 C-60.60382013 37.44486643 -62.74444778 38.68102751 -64.88476562 39.91772461 C-69.96750266 42.85343009 -75.05361896 45.78275026 -80.1524353 48.69042969 C-82.56403083 50.06618041 -84.97361876 51.44542597 -87.38305664 52.82495117 C-89.0874055 53.79883068 -90.79464938 54.76763815 -92.50195312 55.73632812 C-93.53126953 56.32607422 -94.56058594 56.91582031 -95.62109375 57.5234375 C-96.52915771 58.04067383 -97.43722168 58.55791016 -98.37280273 59.09082031 C-100.46100796 60.42554489 -102.03328204 61.73964918 -103.6875 63.5703125 C-103.048125 63.7971875 -102.40875 64.0240625 -101.75 64.2578125 C-97.55429739 66.05597076 -93.64849444 68.30935271 -89.6875 70.5703125 C-90.0175 71.8903125 -90.3475 73.2103125 -90.6875 74.5703125 C-97.6175 70.6103125 -97.6175 70.6103125 -104.6875 66.5703125 C-105.0175 105.5103125 -105.3475 144.4503125 -105.6875 184.5703125 C-106.0175 184.5703125 -106.3475 184.5703125 -106.6875 184.5703125 C-107.0175 145.9603125 -107.3475 107.3503125 -107.6875 67.5703125 C-108.0175 106.5103125 -108.3475 145.4503125 -108.6875 185.5703125 C-109.0175 185.5703125 -109.3475 185.5703125 -109.6875 185.5703125 C-110.0384867 169.55871243 -110.30268552 153.54836631 -110.46468258 137.53384495 C-110.54191479 130.09718025 -110.64711546 122.66291015 -110.8190918 115.2277832 C-110.96898585 108.74423749 -111.06545684 102.26242563 -111.09882742 95.77719539 C-111.11832924 92.34467118 -111.16384088 88.91710477 -111.27345085 85.48617744 C-111.86777513 64.59032298 -111.86777513 64.59032298 -108.24415398 59.57106018 C-104.7786151 56.44678539 -100.96131115 54.7238978 -96.57320023 53.25585365 C-93.64518036 52.19138005 -91.09241918 50.56726617 -88.44921875 48.9375 C-86.42524693 47.77210309 -84.40048949 46.60806966 -82.375 45.4453125 C-80.10805224 44.14066093 -77.84112576 42.83597237 -75.57421875 41.53125 C-73.86177979 40.54656738 -73.86177979 40.54656738 -72.11474609 39.54199219 C-66.63594199 36.39006015 -61.16190221 33.2298815 -55.6875 30.0703125 C-53.53647726 28.82939428 -51.38543553 27.58850898 -49.234375 26.34765625 C-43.5965023 23.09510266 -37.959289 19.84140976 -32.32324219 16.58569336 C-30.09630872 15.30120816 -27.8678331 14.01939225 -25.63769531 12.74047852 C-21.10843067 10.141211 -16.59259733 7.53673264 -12.15625 4.78125 C-11.18896973 4.19138306 -11.18896973 4.19138306 -10.20214844 3.58959961 C-8.59952337 2.60713812 -7.00990158 1.60354355 -5.421875 0.59765625 C-2.6875 -0.4296875 -2.6875 -0.4296875 0 0 Z " fill="#151515" transform="translate(301.6875,76.4296875)"/>
<path d="M0 0 C0.66 0.33 1.32 0.66 2 1 C0.55566273 4.66205908 -1.06672279 5.94478861 -4.48828125 7.8125 C-5.41302246 8.32514404 -6.33776367 8.83778809 -7.29052734 9.3659668 C-8.28777832 9.90519775 -9.2850293 10.44442871 -10.3125 11 C-12.39477921 12.15189563 -14.47680444 13.30425047 -16.55859375 14.45703125 C-17.62319824 15.04178223 -18.68780273 15.6265332 -19.78466797 16.22900391 C-24.83600732 19.01126782 -29.85865189 21.84275956 -34.875 24.6875 C-35.77774658 25.19216797 -36.68049316 25.69683594 -37.6105957 26.21679688 C-38.437771 26.68537109 -39.26494629 27.15394531 -40.1171875 27.63671875 C-41.20942627 28.25099731 -41.20942627 28.25099731 -42.32373047 28.87768555 C-44.15931672 29.90661803 -44.15931672 29.90661803 -45 32 C-44.360625 32.226875 -43.72125 32.45375 -43.0625 32.6875 C-38.86679739 34.48565826 -34.96099444 36.73904021 -31 39 C-31.33 40.32 -31.66 41.64 -32 43 C-38.93 39.04 -38.93 39.04 -46 35 C-46.33 73.94 -46.66 112.88 -47 153 C-47.33 153 -47.66 153 -48 153 C-48.33 114.39 -48.66 75.78 -49 36 C-49.33 74.94 -49.66 113.88 -50 154 C-50.33 154 -50.66 154 -51 154 C-51.3509867 137.98839993 -51.61518552 121.97805381 -51.77718258 105.96353245 C-51.85441479 98.52686775 -51.95961546 91.09259765 -52.1315918 83.6574707 C-52.28148585 77.17392499 -52.37795684 70.69211313 -52.41132742 64.20688289 C-52.43082924 60.77435868 -52.47634088 57.34679227 -52.58595085 53.91586494 C-53.17996502 33.03091372 -53.17996502 33.03091372 -49.5657177 28.00584602 C-46.11201145 24.88513581 -42.30568605 23.17945391 -37.93106461 21.71105576 C-34.77386873 20.54851449 -32.06587133 18.80364013 -29.19921875 17.05078125 C-27.02943342 15.80331661 -24.8588678 14.55720812 -22.6875 13.3125 C-20.50340894 12.05946019 -18.3198079 10.80556582 -16.13671875 9.55078125 C-15.10595215 8.95990723 -14.07518555 8.3690332 -13.01318359 7.76025391 C-9.26992365 5.57350101 -5.59514158 3.28344695 -1.93676758 0.95776367 C-1.29763428 0.64170166 -0.65850098 0.32563965 0 0 Z " fill="#4B4B4B" transform="translate(243,108)"/>
<path d="M0 0 C3.43590609 1.42437879 6.58980906 3.18290526 9.78125 5.0859375 C10.42642578 5.46298828 11.07160156 5.84003906 11.73632812 6.22851562 C13.31753152 7.15381243 14.8936646 8.08776431 16.46875 9.0234375 C13.46762039 12.25431865 10.35066551 14.59457837 6.59375 16.8984375 C5.58570313 17.53523438 4.57765625 18.17203125 3.5390625 18.828125 C0.46875 20.0234375 0.46875 20.0234375 -2.515625 19.4375 C-5.73948787 17.92579228 -8.82920003 16.3164839 -11.90625 14.5234375 C-12.96585937 13.915 -14.02546875 13.3065625 -15.1171875 12.6796875 C-15.91382813 12.133125 -16.71046875 11.5865625 -17.53125 11.0234375 C-17.53125 10.3634375 -17.53125 9.7034375 -17.53125 9.0234375 C-15.16474128 7.34753259 -12.82235082 5.82770934 -10.34375 4.3359375 C-9.67021484 3.90732422 -8.99667969 3.47871094 -8.30273438 3.03710938 C-3.34085037 0.0309338 -3.34085037 0.0309338 0 0 Z " fill="#F8F8F8" transform="translate(300.53125,177.9765625)"/>
<path d="M0 0 C7.9791932 4.3376019 15.93815971 8.71036993 23.875 13.125 C24.97585938 13.73214844 26.07671875 14.33929688 27.2109375 14.96484375 C28.273125 15.55652344 29.3353125 16.14820313 30.4296875 16.7578125 C31.38085449 17.2852002 32.33202148 17.81258789 33.31201172 18.35595703 C36.07248917 20.04433625 38.51869035 21.92745614 41 24 C40.01 24.66 39.02 25.32 38 26 C8.27449618 9.51633079 8.27449618 9.51633079 -3 2 C-2.01 1.34 -1.02 0.68 0 0 Z " fill="#131313" transform="translate(302,126)"/>
<path d="M0 0 C8.06024322 4.38325052 16.10371992 8.79583036 24.125 13.25 C25.259375 13.87390625 26.39375 14.4978125 27.5625 15.140625 C28.63757813 15.73875 29.71265625 16.336875 30.8203125 16.953125 C32.27848389 17.75991699 32.27848389 17.75991699 33.76611328 18.58300781 C36 20 36 20 37 22 C36.34 22 35.68 22 35 22 C34.67 22.66 34.34 23.32 34 24 C30.47963075 21.97480401 26.95997323 19.94837685 23.44091797 17.92089844 C22.24839573 17.2340518 21.05569303 16.54751835 19.86279297 15.86132812 C12.53204602 11.64414485 5.23234714 7.38405495 -2 3 C-1.34 2.01 -0.68 1.02 0 0 Z " fill="#141414" transform="translate(331,118)"/>
<path d="M0 0 C-0.25 1.875 -0.25 1.875 -1 4 C-3 5.125 -3 5.125 -5 6 C-5.33 6.66 -5.66 7.32 -6 8 C-5.360625 8.226875 -4.72125 8.45375 -4.0625 8.6875 C0.13320261 10.48565826 4.03900556 12.73904021 8 15 C7.67 16.32 7.34 17.64 7 19 C6.03578125 18.41089844 5.0715625 17.82179687 4.078125 17.21484375 C2.80247041 16.45507888 1.52640715 15.69599988 0.25 14.9375 C-0.38421875 14.54755859 -1.0184375 14.15761719 -1.671875 13.75585938 C-5.20412995 11.52040659 -5.20412995 11.52040659 -9.21582031 11.39672852 C-10.09898926 11.6953479 -10.09898926 11.6953479 -11 12 C-11 9.69 -11 7.38 -11 5 C-9.54462432 4.16151196 -8.08559627 3.32936066 -6.625 2.5 C-5.81289062 2.0359375 -5.00078125 1.571875 -4.1640625 1.09375 C-2 0 -2 0 0 0 Z " fill="#0E0E0E" transform="translate(204,132)"/>
<path d="M0 0 C0.66 0 1.32 0 2 0 C2.06058594 1.25296875 2.12117188 2.5059375 2.18359375 3.796875 C2.26802256 5.44792724 2.35266939 7.09896835 2.4375 8.75 C2.47681641 9.575 2.51613281 10.4 2.55664062 11.25 C2.59853516 12.04921875 2.64042969 12.8484375 2.68359375 13.671875 C2.72025146 14.4050293 2.75690918 15.13818359 2.79467773 15.89355469 C3.00550764 18.05650411 3.2635117 19.95156343 4 22 C6.72435637 23.07585059 6.72435637 23.07585059 10 24 C12.40041529 25.23861429 14.6817574 26.60905444 17 28 C16.67 28.99 16.34 29.98 16 31 C10.3576498 29.55324354 5.06413859 27.23769792 1 23 C-0.23513627 19.0265934 -0.17196126 15.2590719 -0.0625 11.125 C-0.06958984 10.05507813 -0.07667969 8.98515625 -0.08398438 7.8828125 C-0.09572686 5.25249567 -0.06654461 2.62930811 0 0 Z " fill="#1D1D1D" transform="translate(276,288)"/>
<path d="M0 0 C4.97209562 1.76429199 9.43438061 4.3939166 14 7 C13.67 8.32 13.34 9.64 13 11 C6.07 7.04 6.07 7.04 -1 3 C-1 10.26 -1 17.52 -1 25 C-1.33 25 -1.66 25 -2 25 C-2.05786668 21.20839703 -2.09355054 17.41690689 -2.125 13.625 C-2.14175781 12.54476563 -2.15851563 11.46453125 -2.17578125 10.3515625 C-2.18222656 9.3203125 -2.18867188 8.2890625 -2.1953125 7.2265625 C-2.20578613 6.27346191 -2.21625977 5.32036133 -2.22705078 4.33837891 C-2 2 -2 2 0 0 Z " fill="#202020" transform="translate(324,286)"/>
<path d="M0 0 C0.87269531 0.44214844 1.74539063 0.88429687 2.64453125 1.33984375 C3.52496094 1.76394531 4.40539062 2.18804687 5.3125 2.625 C7.45703125 4.27734375 7.45703125 4.27734375 8.2578125 6.9609375 C8.35642578 8.10755859 8.35642578 8.10755859 8.45703125 9.27734375 C3.79036458 6.94401042 -0.87630208 4.61067708 -5.54296875 2.27734375 C-5.54296875 8.87734375 -5.54296875 15.47734375 -5.54296875 22.27734375 C-5.87296875 22.27734375 -6.20296875 22.27734375 -6.54296875 22.27734375 C-6.54296875 15.34734375 -6.54296875 8.41734375 -6.54296875 1.27734375 C-2.54296875 -0.72265625 -2.54296875 -0.72265625 0 0 Z " fill="#323232" transform="translate(307.54296875,152.72265625)"/>
<path d="M0 0 C2.61161731 1.24125182 5.10501786 2.5310524 7.625 3.9375 C8.33140625 4.32357422 9.0378125 4.70964844 9.765625 5.10742188 C11.51433651 6.06448696 13.25768432 7.03134031 15 8 C15 9.32 15 10.64 15 12 C11.27690287 10.58005967 7.76896899 8.93135786 4.25 7.0625 C3.28578125 6.55847656 2.3215625 6.05445313 1.328125 5.53515625 C-1 4 -1 4 -2 1 C-1.34 0.67 -0.68 0.34 0 0 Z " fill="#121212" transform="translate(239,163)"/>
<path d="M0 0 C6.93 3.96 6.93 3.96 14 8 C13.67 9.32 13.34 10.64 13 12 C6.07 8.04 6.07 8.04 -1 4 C-0.67 2.68 -0.34 1.36 0 0 Z " fill="#1A1A1A" transform="translate(337,97)"/>
<path d="M0 0 C3.77545388 1.09068668 6.47043472 1.9083091 9 5 C8.01 5.66 7.02 6.32 6 7 C3 5.1875 3 5.1875 0 3 C0 2.01 0 1.02 0 0 Z " fill="#121212" transform="translate(316,159)"/>
<path d="M0 0 C4.455 1.98 4.455 1.98 9 4 C8.01 4.495 8.01 4.495 7 5 C6.67 5.66 6.34 6.32 6 7 C2.535 5.02 2.535 5.02 -1 3 C-0.67 2.01 -0.34 1.02 0 0 Z " fill="#131313" transform="translate(194,260)"/>
<path d="M0 0 C0.8971875 0.309375 0.8971875 0.309375 1.8125 0.625 C-0.96030706 3.70589673 -3.25076356 5.31275452 -7.1875 6.625 C-4.6484375 -0.796875 -4.6484375 -0.796875 0 0 Z " fill="#101010" transform="translate(264.1875,97.375)"/>
<path d="M0 0 C1.32 0.33 2.64 0.66 4 1 C0.04 2.98 0.04 2.98 -4 5 C-4.33 3.68 -4.66 2.36 -5 1 C-2.525 1.495 -2.525 1.495 0 2 C0 1.34 0 0.68 0 0 Z " fill="#EBEBEB" transform="translate(215,122)"/>
<path d="M0 0 C0.66 0.33 1.32 0.66 2 1 C1.25 2.9375 1.25 2.9375 0 5 C-2.125 5.75 -2.125 5.75 -4 6 C-2.25 1.125 -2.25 1.125 0 0 Z " fill="#1C1C1C" transform="translate(276,89)"/>
</svg>
